<svg width="105" height="15" viewBox="0 0 105 15" fill="none" xmlns="http://www.w3.org/2000/svg">
<path d="M6.41223 0.395371C6.35958 0.276671 6.28372 0.181353 6.18465 0.108526C6.08594 0.0362349 5.97063 0 5.83872 0C5.70681 0 5.59168 0.0298093 5.4928 0.0887134C5.39409 0.148331 5.31126 0.250432 5.24576 0.395371L0.0264979 13.1661C8.03477e-05 13.2586 -0.00670392 13.3373 0.00668337 13.4034C0.0198922 13.5487 0.0729047 13.67 0.165009 13.7691C0.257114 13.8682 0.39563 13.9172 0.580374 13.9172C0.699075 13.9172 0.804209 13.8848 0.896492 13.8185C0.988597 13.7529 1.06142 13.6543 1.11408 13.5221L2.56937 9.90427H9.00294L10.4845 13.5221C10.5371 13.6406 10.613 13.7363 10.7121 13.8085C10.8108 13.8814 10.9261 13.9171 11.058 13.9171C11.2163 13.9171 11.3545 13.868 11.473 13.7689C11.5915 13.6699 11.6509 13.5287 11.6509 13.3439C11.6509 13.2647 11.6377 13.1856 11.6115 13.1067L6.41223 0.395371ZM3.039 8.7378L5.75786 1.97971L8.52546 8.7378H3.039Z" fill="white"/>
<path d="M23.5122 0.0592346C23.3669 0.0592346 23.2386 0.111891 23.1269 0.217205C23.0146 0.323054 22.9587 0.454427 22.9587 0.612754V11.7533L14.4382 0.276823C14.3853 0.197748 14.3127 0.1417 14.2209 0.108678C14.1283 0.0761919 14.0426 0.059413 13.9639 0.059413C13.8186 0.059413 13.6869 0.108678 13.5683 0.207566C13.4496 0.306632 13.3904 0.454606 13.3904 0.652738V13.3642C13.3904 13.5094 13.4396 13.6347 13.5385 13.7398C13.6376 13.8451 13.7725 13.8979 13.9439 13.8979C14.1022 13.8979 14.2334 13.8453 14.3393 13.7398C14.4446 13.6345 14.4974 13.5092 14.4974 13.3642V2.27171L22.9784 13.7C23.0308 13.7662 23.1037 13.8155 23.1958 13.8483C23.2879 13.8815 23.3739 13.8978 23.4528 13.8978C23.6111 13.8978 23.7523 13.8417 23.8778 13.7298C24.0029 13.6179 24.0656 13.4628 24.0656 13.265V0.612754C24.0656 0.454427 24.0163 0.323054 23.9173 0.217205C23.8185 0.111891 23.6834 0.0592346 23.5122 0.0592346Z" fill="white"/>
<path d="M33.6738 4.25017C32.9225 3.78911 32.0724 3.55814 31.1234 3.55814C30.1873 3.55814 29.3406 3.78893 28.5834 4.25017C27.8251 4.71158 27.2257 5.33757 26.7839 6.12832C26.3423 6.91906 26.1219 7.82208 26.1219 8.83666C26.1219 9.83838 26.3425 10.7377 26.7839 11.5352C27.2255 12.3327 27.8251 12.9585 28.5834 13.4133C29.3407 13.8681 30.1873 14.0954 31.1234 14.0954C32.0724 14.0954 32.9225 13.8681 33.6738 13.4133C34.4247 12.9585 35.021 12.3327 35.4628 11.5352C35.9041 10.7378 36.1251 9.83838 36.1251 8.83666C36.1251 7.82208 35.9041 6.91906 35.4628 6.12832C35.021 5.33775 34.4247 4.71158 33.6738 4.25017ZM34.4445 10.9717C34.1152 11.5914 33.6638 12.0823 33.0904 12.4443C32.5174 12.8073 31.8615 12.9881 31.1234 12.9881C30.3985 12.9881 29.7493 12.8073 29.1762 12.4443C28.6028 12.0823 28.148 11.5912 27.8121 10.9717C27.476 10.3525 27.308 9.64061 27.308 8.83666C27.308 8.0327 27.476 7.31782 27.8121 6.69183C28.148 6.06584 28.6028 5.57158 29.1762 5.20906C29.7493 4.84671 30.3985 4.66518 31.1234 4.66518C31.8615 4.66518 32.5173 4.84671 33.0904 5.20906C33.6638 5.57141 34.1154 6.06566 34.4445 6.69183C34.7736 7.318 34.9388 8.0327 34.9388 8.83666C34.9388 9.64061 34.7738 10.3526 34.4445 10.9717Z" fill="white"/>
<path d="M41.8183 3.83517H39.8414V1.6409C39.8414 1.48257 39.7852 1.34406 39.6731 1.22554C39.5612 1.10684 39.4194 1.04758 39.2484 1.04758C39.0769 1.04758 38.9352 1.10684 38.8232 1.22554C38.7113 1.34406 38.6553 1.48257 38.6553 1.6409V3.83499H37.2121C37.054 3.83499 36.9187 3.888 36.8069 3.99332C36.6947 4.09863 36.639 4.23054 36.639 4.38851C36.639 4.53381 36.6947 4.66215 36.8069 4.77388C36.9187 4.88616 37.054 4.94203 37.2121 4.94203H38.6553V11.6241C38.6553 12.217 38.7374 12.6719 38.9023 12.9881C39.0669 13.3043 39.2743 13.5254 39.5251 13.6504C39.7752 13.7759 40.0194 13.8481 40.2566 13.868C40.4938 13.8876 40.6718 13.8976 40.7903 13.8976C41.0802 13.8976 41.3306 13.8351 41.5416 13.7096C41.7524 13.5845 41.8579 13.4301 41.8579 13.2452C41.8579 13.1001 41.815 12.9815 41.7294 12.8894C41.6437 12.7973 41.5416 12.7509 41.4229 12.7509C41.3172 12.7509 41.2219 12.7675 41.1364 12.8004C41.0505 12.8332 40.955 12.8496 40.8499 12.8496C40.6916 12.8496 40.5332 12.8198 40.3753 12.7607C40.2173 12.7013 40.0888 12.5796 39.9899 12.395C39.8908 12.2103 39.8416 11.9336 39.8416 11.5646V4.94221H41.8184C41.9764 4.94221 42.1081 4.88991 42.214 4.78388C42.3189 4.67857 42.3719 4.55344 42.3719 4.40832C42.3719 4.25035 42.3189 4.11541 42.214 4.00313C42.108 3.8914 41.9764 3.83517 41.8183 3.83517Z" fill="white"/>
<path d="M50.8727 4.77409C50.4507 4.37248 49.9664 4.06939 49.4193 3.86501C48.8726 3.66063 48.3087 3.55835 47.729 3.55835C46.9382 3.55835 46.19 3.7729 45.4851 4.20094C44.78 4.62951 44.2067 5.23872 43.7653 6.02946C43.3236 6.82039 43.103 7.77606 43.103 8.89613C43.103 9.93748 43.3206 10.8467 43.7553 11.6243C44.1904 12.402 44.7964 13.0082 45.5741 13.4428C46.3515 13.878 47.2479 14.0952 48.2628 14.0952C49.0141 14.0952 49.7058 13.9205 50.3384 13.5712C50.971 13.2218 51.4853 12.8099 51.8805 12.3356C52.012 12.2169 52.0782 12.0786 52.0782 11.9204C52.0782 11.7889 52.0286 11.6703 51.9299 11.5647C51.8312 11.4594 51.7093 11.4067 51.5642 11.4067C51.4322 11.4067 51.2939 11.4658 51.1491 11.5843C50.9642 11.8215 50.7308 12.0491 50.4471 12.2665C50.1637 12.4839 49.8375 12.6587 49.4686 12.7904C49.0996 12.9221 48.6909 12.988 48.2429 12.988C47.3993 12.988 46.681 12.8036 46.088 12.4341C45.4947 12.0657 45.0403 11.5645 44.724 10.9319C44.4103 10.3047 44.2531 9.60619 44.2504 8.83633H51.7223C51.8803 8.83633 52.0188 8.78046 52.1375 8.66837C52.256 8.55645 52.3154 8.42133 52.3154 8.263C52.3022 7.49903 52.1637 6.82663 51.9001 6.2467C51.6366 5.66712 51.2941 5.17643 50.8727 4.77409ZM44.5663 6.96854C44.777 6.44804 45.0506 6.01947 45.3865 5.68354C45.7225 5.34761 46.098 5.10057 46.5134 4.94224C46.9286 4.78391 47.3336 4.70502 47.7291 4.70502C48.2562 4.70502 48.7603 4.81693 49.2417 5.04095C49.7226 5.2655 50.1342 5.59482 50.4773 6.02946C50.8198 6.46464 51.0238 6.99174 51.0901 7.61113V7.7691H44.3405C44.3932 7.48172 44.4671 7.21379 44.5663 6.96854Z" fill="white"/>
<path d="M71.1355 0.0592468C70.9249 0.0330077 70.7467 0.118508 70.6022 0.316283L65.3872 8.09126L60.2036 0.316283C60.1374 0.224178 60.0551 0.158313 59.9566 0.118508C59.8579 0.0787031 59.7618 0.0592468 59.6697 0.0592468C59.4982 0.0592468 59.3565 0.118508 59.2447 0.237208C59.1325 0.355909 59.0768 0.494244 59.0768 0.652571V13.3045C59.0768 13.4628 59.1291 13.6013 59.2351 13.7198C59.3404 13.8385 59.4786 13.8978 59.6499 13.8978C59.8213 13.8978 59.9628 13.8383 60.0751 13.7198C60.1868 13.6013 60.2431 13.4628 60.2431 13.3045V2.39113L64.8888 9.46926C64.9411 9.54869 65.0106 9.61135 65.0962 9.6574C65.1817 9.70381 65.271 9.72005 65.3633 9.70684C65.4686 9.72005 65.561 9.70381 65.6401 9.6574C65.719 9.61135 65.7786 9.54869 65.8181 9.46926L70.4638 2.43647V13.3045C70.4638 13.4628 70.5229 13.6013 70.6414 13.7198C70.7603 13.8385 70.9117 13.8978 71.0964 13.8978C71.2674 13.8978 71.4125 13.8383 71.5311 13.7198C71.6498 13.6013 71.7092 13.4628 71.7092 13.3045V0.652571C71.7092 0.481393 71.653 0.339666 71.5411 0.227391C71.429 0.115473 71.2938 0.0592468 71.1355 0.0592468Z" fill="white"/>
<path d="M81.9891 3.85498C81.8043 3.85498 81.6592 3.91406 81.5544 4.03259C81.4486 4.15146 81.3961 4.28962 81.3961 4.44795V10.023C81.3961 10.9717 81.1391 11.6932 80.625 12.1874C80.1109 12.6817 79.3994 12.9287 78.4898 12.9287C77.5934 12.9287 76.8917 12.6817 76.3844 12.1874C75.877 11.6932 75.6237 10.9717 75.6237 10.023V4.44795C75.6237 4.28962 75.5674 4.15146 75.4555 4.03259C75.3436 3.91388 75.2019 3.85498 75.0303 3.85498C74.8593 3.85498 74.7171 3.91406 74.6057 4.03259C74.4931 4.15146 74.4374 4.28962 74.4374 4.44795V10.023C74.4374 11.3276 74.8031 12.3229 75.5344 13.0081C76.2659 13.6932 77.251 14.0361 78.49 14.0361C79.7421 14.0361 80.7371 13.6934 81.4752 13.0081C82.2132 12.3229 82.5822 11.3274 82.5822 10.023V4.44795C82.5822 4.28962 82.526 4.15146 82.4146 4.03259C82.3018 3.91406 82.1601 3.85498 81.9891 3.85498Z" fill="white"/>
<path d="M90.8554 9.22207C90.5589 9.00466 90.2158 8.82384 89.8272 8.67872C89.4383 8.53378 89.0333 8.40848 88.6115 8.30316C88.1106 8.17143 87.6592 8.02631 87.2574 7.86799C86.8552 7.71002 86.5323 7.51224 86.2889 7.27502C86.0447 7.0378 85.9099 6.72846 85.8835 6.34576C85.8835 5.93736 85.9954 5.60803 86.2198 5.35742C86.4436 5.10717 86.7239 4.91939 87.0598 4.79391C87.3961 4.66896 87.7549 4.60648 88.1374 4.60648C88.6381 4.60648 89.1061 4.69859 89.5409 4.88316C89.9757 5.06772 90.3515 5.33797 90.6678 5.69371C90.7599 5.79938 90.8753 5.85168 91.0137 5.85168C91.152 5.85168 91.2738 5.81223 91.3794 5.73298C91.511 5.61428 91.5772 5.47951 91.5772 5.32779C91.5772 5.17643 91.5178 5.04095 91.3992 4.92242C91.1092 4.57989 90.7795 4.30964 90.4107 4.11205C90.0418 3.91409 89.6662 3.7729 89.2839 3.68687C88.9015 3.60137 88.5456 3.55835 88.2166 3.55835C87.5573 3.55835 86.9675 3.67705 86.447 3.91409C85.9263 4.15167 85.5145 4.48118 85.2115 4.90261C84.908 5.32458 84.757 5.81223 84.757 6.36575C84.757 6.8402 84.8557 7.24253 85.0535 7.57186C85.2513 7.90119 85.5113 8.18143 85.8344 8.41205C86.1573 8.64266 86.5295 8.83401 86.9513 8.98502C87.3731 9.13674 87.8079 9.27187 88.2561 9.39039C88.6779 9.49606 89.0766 9.62101 89.4522 9.76595C89.8276 9.91089 90.1342 10.1087 90.3715 10.3589C90.6087 10.6093 90.7272 10.939 90.7272 11.3473C90.7272 11.7428 90.6085 12.0687 90.3715 12.3258C90.1342 12.5828 89.8342 12.7742 89.4718 12.8991C89.1091 13.0246 88.7434 13.0871 88.3748 13.0871C87.6761 13.0871 87.073 12.9455 86.5659 12.6621C86.0584 12.3788 85.6268 12.0066 85.2711 11.5452C85.1524 11.4265 85.024 11.3606 84.8855 11.3474C84.7474 11.3346 84.6253 11.3738 84.5198 11.4661C84.3618 11.5586 84.2793 11.6807 84.2727 11.8319C84.2661 11.9836 84.3154 12.1385 84.4211 12.2967C84.9351 12.9427 85.5249 13.4037 86.1903 13.6804C86.8558 13.9572 87.5444 14.0958 88.2563 14.0958C88.9151 14.0958 89.5147 13.9835 90.0553 13.7596C90.5956 13.5358 91.0271 13.2131 91.3501 12.7911C91.6729 12.3695 91.8344 11.8686 91.8344 11.2885C91.8344 10.788 91.7453 10.3727 91.5674 10.0433C91.3894 9.714 91.1518 9.43965 90.8554 9.22207Z" fill="white"/>
<path d="M94.1272 3.61792C93.9557 3.61792 93.8139 3.677 93.7022 3.79552C93.5899 3.91405 93.5341 4.05256 93.5341 4.21089V13.3044C93.5341 13.4628 93.5899 13.6013 93.7022 13.7198C93.8139 13.8385 93.9557 13.8978 94.1272 13.8978C94.2852 13.8978 94.4237 13.8383 94.5422 13.7198C94.6609 13.6013 94.7202 13.4628 94.7202 13.3044V4.21071C94.7202 4.05238 94.664 3.91387 94.5522 3.79535C94.4399 3.67682 94.2982 3.61792 94.1272 3.61792Z" fill="white"/>
<path d="M94.1466 0.632568C93.883 0.632568 93.6752 0.695221 93.5242 0.820169C93.3725 0.94601 93.2968 1.12683 93.2968 1.36405V1.56147C93.2968 1.79887 93.3661 1.98022 93.5044 2.10535C93.6429 2.23065 93.8503 2.29313 94.1272 2.29313C94.3906 2.29313 94.5916 2.23048 94.73 2.10535C94.8685 1.98022 94.9377 1.79887 94.9377 1.56147V1.36405C94.9377 1.12683 94.8685 0.94601 94.73 0.820169C94.5915 0.695221 94.3971 0.632568 94.1466 0.632568Z" fill="white"/>
<path d="M104.861 12.0492C104.769 11.9502 104.644 11.9011 104.486 11.9011C104.301 11.9011 104.153 11.9702 104.041 12.1085C103.929 12.247 103.741 12.3888 103.478 12.5335C103.28 12.6522 103.033 12.7577 102.736 12.8498C102.44 12.9423 102.028 12.9881 101.501 12.9881C100.736 12.9881 100.061 12.8073 99.4744 12.4443C98.8881 12.0823 98.4333 11.5844 98.1106 10.9517C97.7873 10.3193 97.6259 9.60741 97.6259 8.81684C97.6259 8.03931 97.7971 7.33764 98.14 6.71165C98.4825 6.08548 98.9506 5.58801 99.5435 5.21905C100.137 4.8501 100.802 4.66518 101.54 4.66518C101.936 4.66518 102.295 4.69838 102.618 4.76424C102.941 4.83011 103.188 4.9024 103.359 4.98183C103.543 5.07393 103.682 5.17264 103.774 5.27796C103.866 5.38381 103.962 5.47591 104.061 5.55481C104.16 5.63388 104.295 5.67351 104.466 5.67351C104.611 5.67351 104.733 5.61121 104.832 5.48573C104.931 5.36078 104.98 5.23226 104.98 5.10053C104.98 4.8235 104.819 4.56647 104.496 4.32942C104.173 4.0922 103.748 3.90442 103.221 3.76591C102.693 3.62739 102.114 3.55814 101.481 3.55814C100.466 3.55814 99.5831 3.79893 98.8318 4.27962C98.0806 4.76121 97.4938 5.39666 97.0722 6.18758C96.6503 6.97832 96.4398 7.8551 96.4398 8.81684C96.4398 9.81875 96.6472 10.718 97.0626 11.5155C97.4778 12.3131 98.0574 12.9423 98.802 13.4033C99.5467 13.8647 100.407 14.0952 101.382 14.0952C102.094 14.0952 102.72 13.9992 103.26 13.8085C103.801 13.6177 104.226 13.3933 104.536 13.1367C104.845 12.8796 105 12.6458 105 12.4344C105 12.2765 104.953 12.1483 104.861 12.0492Z" fill="white"/>
</svg>
