<svg width="39" height="21" viewBox="0 0 39 21" fill="none" xmlns="http://www.w3.org/2000/svg">
<path fill-rule="evenodd" clip-rule="evenodd" d="M30.3549 0.23144C29.9867 0.682003 25.1715 9.77423 25.1715 10.019C25.1715 10.6715 26.486 11.138 26.906 10.6344C27.4087 10.0318 31.9528 1.26912 31.9528 0.902477C31.9528 0.174966 30.7976 -0.310216 30.3549 0.23144ZM37.3656 0.31886C37.2167 0.487231 35.0484 4.44072 32.5473 9.10459C27.6892 18.1638 27.3189 18.7208 26.1537 18.7208C25.6866 18.7208 25.4011 18.5818 24.9872 18.1526C24.6858 17.8401 22.6186 14.1881 20.3935 10.0372C18.1685 5.8863 16.1268 2.20416 15.8567 1.85483C15.2824 1.11246 14.1795 0.436527 13.2771 0.273925C12.1451 0.0700613 11.1791 0.462753 10.1187 1.55813C9.30304 2.40051 8.47741 3.82546 4.58168 11.1153C2.06366 15.8272 0.00180431 19.8538 3.14305e-05 20.0634C-0.00617365 20.7776 0.907746 21.2509 1.53446 20.8579C1.64881 20.786 3.82785 16.8336 6.37655 12.0748C8.94403 7.28083 11.2583 3.16893 11.5661 2.85405C12.3432 2.0594 13.2381 2.0594 14.0187 2.85405C14.3286 3.16946 16.3788 6.79145 18.6255 10.993C20.8523 15.157 22.9202 18.8703 23.2212 19.245C24.0043 20.2201 25.4761 20.8972 26.5095 20.7575C28.6574 20.4671 28.998 19.9966 34.409 9.84591C36.9341 5.10879 39 1.08886 39 0.912442C39 0.151712 37.8755 -0.256715 37.3656 0.31886ZM11.7863 11.6896C11.0435 12.1514 11.0802 12.0942 8.85485 16.2587C6.93908 19.844 6.8648 20.0228 7.10963 20.4549C7.28337 20.7619 7.54168 20.9234 7.91682 20.9596C8.61622 21.0275 8.67225 20.9481 10.8954 16.7474C11.8516 14.9409 12.7116 13.4884 12.8068 13.5197C12.902 13.551 13.868 15.2258 14.9537 17.2415C16.7553 20.5864 16.9716 20.9112 17.4308 20.9631C18.0045 21.0278 18.6119 20.5823 18.6119 20.0966C18.6119 19.5938 14.7637 12.5413 14.1974 12.0061C13.5266 11.3724 12.5112 11.239 11.7863 11.6896Z" fill="white"/>
</svg>
